Coordinates
version=1
nRows=22
nColumns=24
inDegrees=yes

Units are S.I. units (second, meters, Newtons, ...)
Angles are in degrees.

endheader
time	pelvis_tilt	pelvis_list	pelvis_rotation	pelvis_tx	pelvis_ty	pelvis_tz	hip_flexion_r	hip_adduction_r	hip_rotation_r	knee_angle_r	ankle_angle_r	subtalar_angle_r	mtp_angle_r	hip_flexion_l	hip_adduction_l	hip_rotation_l	knee_angle_l	ankle_angle_l	subtalar_angle_l	mtp_angle_l	lumbar_extension	lumbar_bending	lumbar_rotation
      1.35783333	      5.59409214	     -0.26233146	     -5.38296191	      0.86713370	      0.97578743	      0.30794490	    -30.18007823	     -0.08787449	      1.14175931	     -3.23957583	     15.24596592	      0.22404447	     -0.06261637	     18.28613229	     -1.65755576	     -0.29381527	      9.29652186	      3.02168187	     -6.19435944	     -2.57736904	    -20.72064325	      4.67734998	      9.60572339
      1.36200000	      5.62852862	     -0.16137848	     -5.50880291	      0.87309384	      0.97510732	      0.30782703	    -30.39409882	     -0.29940269	      1.11601463	     -3.55285251	     15.05857718	      0.22939518	     -0.00400373	     18.41498215	     -1.57896533	     -0.11331130	      8.51217591	      3.15431997	     -6.45918072	     -2.57174470	    -20.75282305	      4.47922851	      9.60011549
      1.36616667	      5.62506128	     -0.06220253	     -5.58441999	      0.87912031	      0.97437093	      0.30764127	    -30.57798615	     -0.48060472	      1.03410328	     -3.85276242	     14.83787104	      0.28944665	      0.12521543	     18.58598344	     -1.48975814	      0.19046552	      7.69659158	      3.23014183	     -6.78426967	     -2.56023301	    -20.74157954	      4.26439405	      9.62049186
      1.37033333	      5.63569777	      0.04048881	     -5.68662806	      0.88519793	      0.97368655	      0.30746618	    -30.76060857	     -0.68081370	      0.95189848	     -4.18131471	     14.60385684	      0.31526658	      0.25319924	     18.73578256	     -1.39289758	      0.40024001	      6.85826796	      3.23673602	     -7.16066654	     -2.54918028	    -20.71453344	      4.06480279	      9.63244135
      1.37450000	      5.58072797	      0.12812969	     -5.76380536	      0.89132300	      0.97292280	      0.30722121	    -30.86175907	     -0.85138834	      0.83724875	     -4.53858387	     14.37817134	      0.42771466	      0.77532575	     18.92326492	     -1.30486400	      0.81004161	      6.07298705	      2.98313251	     -7.88520443	     -2.50308587	    -20.63841833	      3.91427889	      9.67998290
      1.37866667	      5.62748813	      0.26307374	     -5.87924680	      0.89752464	      0.97232866	      0.30704596	    -31.08846971	     -1.09133074	      0.76827930	     -4.83438835	     13.92044918	      0.25833101	      7.71785100	     19.00885501	     -1.16264520	      1.00372830	      5.23677714	      2.86280766	     -8.33455095	     -1.70929562	    -20.67971466	      3.67398914	      9.65288781
      1.38283333	      5.60993006	      0.40744168	     -6.00042009	      0.90380969	      0.97168737	      0.30687676	    -31.22881328	     -1.33599290	      0.68211887	     -5.18036168	     13.58473008	      0.22360786	      7.73393174	     19.16764572	     -1.01317149	      1.09154559	      4.37545823	      2.68726039	     -8.67396529	     -1.71149100	    -20.59937684	      3.41366135	      9.66840718
      1.38700000	      5.54996061	      0.53370268	     -6.09964745	      0.91012843	      0.97100924	      0.30663922	    -31.31575906	     -1.55021316	      0.59847760	     -5.54456610	     13.24570591	      0.19932659	      7.85344493	     19.34686108	     -0.87166516	      1.36524393	      3.56354725	      2.26998822	     -9.37436406	     -1.69945314	    -20.49024031	      3.20921816	      9.74001776
      1.39116667	      5.55225497	      0.70119180	     -6.22746759	      0.91652134	      0.97044929	      0.30645172	    -31.45639790	     -1.82129858	      0.48930647	     -5.92532447	     12.84357460	      0.12243356	      7.90677666	     19.47090490	     -0.68589737	      1.39406119	      2.70739097	      1.99502393	     -9.74563939	     -1.69703486	    -20.42986900	      2.92491012	      9.72698055
      1.39533333	      5.49382875	      0.84596002	     -6.34633150	      0.92294235	      0.96984162	      0.30621921	    -31.52461939	     -2.06092412	      0.43139100	     -6.31913310	     12.41966540	      0.01666952	      8.20514947	     19.60326617	     -0.51839358	      1.68730412	      1.98050575	      1.33414067	    -10.64957036	     -1.65351105	    -20.32576420	      2.69434298	      9.79988646
      1.39950000	      5.47042515	      1.02898825	     -6.47276030	      0.92943594	      0.96931954	      0.30598957	    -31.62047143	     -2.34392811	      0.32570492	     -6.72263466	     11.94174063	     -0.10878655	      8.69037725	     19.70898837	     -0.30436050	      1.81565309	      1.22381729	      0.72192150	    -11.35887657	     -1.56742514	    -20.23144436	      2.40698673	      9.81671221
      1.40366667	      5.43514687	      1.24108336	     -6.59216969	      0.93600628	      0.96881762	      0.30576405	    -31.70369144	     -2.64784976	      0.20349617	     -7.12040004	     11.43890493	     -0.22077026	      8.82562705	     19.87341107	     -0.06136492	      1.71449048	      0.37739785	      0.20145140	    -11.65163692	     -1.55095469	    -20.11478799	      2.08035556	      9.80498437
      1.40783333	      5.35600908	      1.41266234	     -6.71380297	      0.94257613	      0.96830475	      0.30551625	    -31.71768246	     -2.90651517	      0.15116158	     -7.55976415	     10.92585391	     -0.44734248	      9.34997100	     20.03282761	      0.14527475	      1.85703814	     -0.35624678	     -0.66534531	    -12.52862995	     -1.46109815	    -19.94312892	      1.82086620	      9.90520842
      1.41200000	      5.32892070	      1.62927907	     -6.85169725	      0.94920086	      0.96790895	      0.30527420	    -31.75774182	     -3.22472183	      0.02708680	     -8.03886766	     10.27187848	     -0.66934219	     10.48443446	     20.10964328	      0.40336801	      1.94561823	     -1.03132575	     -1.51568528	    -13.32883840	     -1.25142641	    -19.84053157	      1.49475803	      9.92175617
      1.41616667	      5.28553938	      1.87258546	     -6.95906814	      0.95589665	      0.96750802	      0.30498542	    -31.79063198	     -3.55382005	     -0.15036148	     -8.48453875	      9.58700022	     -0.89593688	     17.87938756	     20.30152998	      0.68915871	      1.73435836	     -1.89769254	     -2.24054113	    -13.56983669	      0.16562237	    -19.69539878	      1.15876785	      9.89270829
      1.42033333	      5.21249038	      2.10485274	     -7.08116169	      0.96259672	      0.96713829	      0.30472646	    -31.76417336	     -3.86714312	     -0.23003946	     -8.98865320	      8.94281685	     -1.19360618	     17.94871903	     20.48745570	      0.96000567	      1.63180477	     -2.68937921	     -3.06169542	    -14.04745022	      0.14367220	    -19.51620348	      0.81752777	      9.94618538
      1.42450000	      5.14810533	      2.35178294	     -7.19631142	      0.96932625	      0.96682398	      0.30443791	    -31.72569563	     -4.19349057	     -0.33941466	     -9.52572008	      8.24846997	     -1.47916942	     18.10161065	     20.65660279	      1.25254419	      1.54082978	     -3.46102185	     -3.91638919	    -14.54924991	      0.13665410	    -19.34701697	      0.46803886	      9.96783425
      1.42866667	      5.08107055	      2.60934899	     -7.29976615	      0.97608258	      0.96654881	      0.30412169	    -31.66813807	     -4.52297575	     -0.45753208	    -10.08607016	      7.51109054	     -1.78167123	     18.34784908	     20.84185104	      1.56138985	      1.43821605	     -4.26341187	     -4.74373503	    -15.01810154	      0.14727351	    -19.17002479	      0.11398548	      9.98415052
      1.43283333	      5.01454022	      2.87609232	     -7.39743977	      0.98286522	      0.96631937	      0.30378087	    -31.59017158	     -4.85822607	     -0.58000432	    -10.67891457	      6.73196120	     -2.11655154	     18.66930891	     21.03335902	      1.88260577	      1.32704555	     -5.08079966	     -5.54119642	    -15.42428549	      0.16214883	    -18.99168041	     -0.24792339	      9.99612076
      1.43700000	      4.97737667	      3.17341496	     -7.47916661	      0.98969648	      0.96615383	      0.30341283	    -31.53789070	     -5.22167737	     -0.76118469	    -11.27429717	      5.91223938	     -2.33868030	     18.81190872	     21.22547197	      2.23984261	      1.12991814	     -5.96948214	     -6.17336345	    -15.61697592	      0.16369297	    -18.84043247	     -0.64962088	      9.96202839
      1.44116667	      4.88768132	      3.41946223	     -7.55926492	      0.99646986	      0.96599566	      0.30301576	    -31.38715104	     -5.52094672	     -0.82540027	    -11.94368352	      5.03969650	     -2.84801701	     19.29285559	     21.45097978	      2.54913217	      1.07651820	     -6.81760083	     -6.93130904	    -16.10518722	      0.19055609	    -18.63735623	     -0.97209203	     10.01941139
      1.44533333	      4.87245188	      3.72970745	     -7.62781859	      1.00333318	      0.96593796	      0.30257066	    -31.31553398	     -5.90088193	     -1.05087774	    -12.58771109	      4.06485114	     -3.15228048	     26.27686462	     21.62392190	      2.93660632	      0.92904448	     -7.72611930	     -7.53381875	    -16.41911747	      0.65476366	    -18.50388237	     -1.37306781	      9.97821723
